<mxfile host="app.diagrams.net" modified="2022-11-30T02:36:38.940Z" agent="5.0 (Macintosh; Intel Mac OS X 10_15_7) AppleWebKit/537.36 (KHTML, like Gecko) Chrome/107.0.0.0 Safari/537.36" etag="gXsQW2JV80blUU_uJBjT" version="20.6.0" type="github">
  <diagram name="Page-1" id="74e2e168-ea6b-b213-b513-2b3c1d86103e">
    <mxGraphModel dx="1357" dy="836" grid="1" gridSize="10" guides="1" tooltips="1" connect="1" arrows="1" fold="1" page="1" pageScale="1" pageWidth="1100" pageHeight="850" background="none" math="0" shadow="0">
      <root>
        <mxCell id="0" />
        <mxCell id="1" parent="0" />
        <mxCell id="kle4KctOMLR4mloC2sLS-6" value="" style="edgeStyle=orthogonalEdgeStyle;rounded=0;orthogonalLoop=1;jettySize=auto;html=1;" edge="1" parent="1" source="kle4KctOMLR4mloC2sLS-1" target="kle4KctOMLR4mloC2sLS-2">
          <mxGeometry relative="1" as="geometry" />
        </mxCell>
        <mxCell id="kle4KctOMLR4mloC2sLS-1" value="Inicio" style="ellipse;whiteSpace=wrap;html=1;aspect=fixed;" vertex="1" parent="1">
          <mxGeometry x="510" y="20" width="110" height="110" as="geometry" />
        </mxCell>
        <mxCell id="kle4KctOMLR4mloC2sLS-7" value="" style="edgeStyle=orthogonalEdgeStyle;rounded=0;orthogonalLoop=1;jettySize=auto;html=1;" edge="1" parent="1" source="kle4KctOMLR4mloC2sLS-2" target="kle4KctOMLR4mloC2sLS-3">
          <mxGeometry relative="1" as="geometry" />
        </mxCell>
        <mxCell id="kle4KctOMLR4mloC2sLS-2" value="Salario" style="shape=card;whiteSpace=wrap;html=1;" vertex="1" parent="1">
          <mxGeometry x="450" y="180" width="230" height="100" as="geometry" />
        </mxCell>
        <mxCell id="kle4KctOMLR4mloC2sLS-8" value="" style="edgeStyle=orthogonalEdgeStyle;rounded=0;orthogonalLoop=1;jettySize=auto;html=1;" edge="1" parent="1" source="kle4KctOMLR4mloC2sLS-3" target="kle4KctOMLR4mloC2sLS-4">
          <mxGeometry relative="1" as="geometry" />
        </mxCell>
        <mxCell id="kle4KctOMLR4mloC2sLS-3" value="ValorImposto = Salario * AliquotaIR" style="whiteSpace=wrap;html=1;aspect=fixed;" vertex="1" parent="1">
          <mxGeometry x="487.5" y="330" width="155" height="155" as="geometry" />
        </mxCell>
        <mxCell id="kle4KctOMLR4mloC2sLS-9" value="" style="edgeStyle=orthogonalEdgeStyle;rounded=0;orthogonalLoop=1;jettySize=auto;html=1;" edge="1" parent="1" source="kle4KctOMLR4mloC2sLS-4" target="kle4KctOMLR4mloC2sLS-5">
          <mxGeometry relative="1" as="geometry" />
        </mxCell>
        <mxCell id="kle4KctOMLR4mloC2sLS-4" value="&quot;Imposto Devido: &quot; ValorImposto" style="shape=document;whiteSpace=wrap;html=1;boundedLbl=1;" vertex="1" parent="1">
          <mxGeometry x="482.5" y="540" width="165" height="80" as="geometry" />
        </mxCell>
        <mxCell id="kle4KctOMLR4mloC2sLS-5" value="Fim" style="ellipse;whiteSpace=wrap;html=1;aspect=fixed;" vertex="1" parent="1">
          <mxGeometry x="525" y="660" width="80" height="80" as="geometry" />
        </mxCell>
      </root>
    </mxGraphModel>
  </diagram>
</mxfile>
